<svg width="52" height="52" viewBox="0 0 52 52" fill="none" xmlns="http://www.w3.org/2000/svg">
<path fill-rule="evenodd" clip-rule="evenodd" d="M38.2566 13.7435C31.4875 6.97437 20.5127 6.97437 13.7436 13.7435C11.3429 16.1441 9.79642 19.0679 9.098 22.1461C8.83323 23.313 7.67258 24.0444 6.50563 23.7796C5.33867 23.5148 4.60731 22.3542 4.87208 21.1872C5.74608 17.3352 7.6839 13.6749 10.6794 10.6793C19.1408 2.21797 32.8594 2.21797 41.3207 10.6793C43.0497 12.4083 44.4173 13.856 45.5001 15.0661V8.66665C45.5001 7.47003 46.4701 6.49998 47.6667 6.49998C48.8634 6.49998 49.8334 7.47003 49.8334 8.66665V21.6666C49.8334 22.8633 48.8634 23.8333 47.6667 23.8333H34.6667C33.4701 23.8333 32.5001 22.8633 32.5001 21.6666C32.5001 20.47 33.4701 19.5 34.6667 19.5H43.6058C42.4965 18.1633 40.8097 16.2966 38.2566 13.7435ZM45.4945 28.2204C46.6615 28.4851 47.3929 29.6458 47.1281 30.8127C46.2541 34.6648 44.3163 38.3251 41.3207 41.3206C32.8594 49.782 19.1408 49.782 10.6794 41.3206C8.95045 39.5916 7.58287 38.1439 6.50008 36.9339V43.3333C6.50008 44.5299 5.53003 45.5 4.33341 45.5C3.1368 45.5 2.16675 44.5299 2.16675 43.3333V30.3333C2.16675 29.1367 3.1368 28.1666 4.33341 28.1666H17.3334C18.53 28.1666 19.5001 29.1367 19.5001 30.3333C19.5001 31.5299 18.53 32.5 17.3334 32.5H8.39438C9.50366 33.8367 11.1904 35.7034 13.7436 38.2565C20.5127 45.0256 31.4875 45.0256 38.2566 38.2565C40.6572 35.8558 42.2037 32.9321 42.9022 29.8539C43.1669 28.6869 44.3276 27.9556 45.4945 28.2204Z" fill="black"/>
</svg>
